HIERARCHY
ROOT Hips
{
  OFFSET 58.6531 101.466 27.7425
  CHANNELS 6 Xposition Yposition Zposition Zrotation Xrotation Yrotation
  JOINT RightUpLeg
  {
    OFFSET -8.9458 -8.66707 0.101652
    CHANNELS 3 Zrotation Xrotation Yrotation
    JOINT RightLeg
    {
      OFFSET 0 -44.4227 1.3727
      CHANNELS 3 Zrotation Xrotation Yrotation
      JOINT RightFoot
      {
        OFFSET 0.253549 -42.0924 -1.46059
        CHANNELS 3 Zrotation Xrotation Yrotation
        JOINT RightToes
        {
          OFFSET 0.04 -4.41509 8.4991
          CHANNELS 3 Zrotation Xrotation Yrotation
          End Site
          {
            OFFSET -0.08 -0.137448 9.77979
          }
        }
      }
    }
  }
  JOINT Spine
  {
    OFFSET 0 11.8905 0
    CHANNELS 3 Zrotation Xrotation Yrotation
    JOINT Spine1
    {
      OFFSET 0 25.6574 0.127663
      CHANNELS 3 Zrotation Xrotation Yrotation
      JOINT HEad
      {
        OFFSET 0 8.73416 0.011341
        CHANNELS 3 Zrotation Xrotation Yrotation
        End Site
        {
          OFFSET -0.29 12.7742 2.51395
        }
      }
      JOINT LeftShoulder1
      {
        OFFSET 8.99 -0.362252 -0.22
        CHANNELS 3 Zrotation Xrotation Yrotation
        JOINT LeftArm
        {
          OFFSET 10.2827 -0.00338 0.322123
          CHANNELS 3 Zrotation Xrotation Yrotation
          JOINT LeftForeArm
          {
            OFFSET 32.7669 0.099144 -1.42434
            CHANNELS 3 Zrotation Xrotation Yrotation
            JOINT LeftHand
            {
              OFFSET 27.5643 0.085362 1.02216
              CHANNELS 3 Zrotation Xrotation Yrotation
              End Site
              {
                OFFSET 16.7443 -0.6 1.50291
              }
            }
          }
        }
      }
      JOINT RightShoulder
      {
        OFFSET -8.99 -0.362252 -0.22
        CHANNELS 3 Zrotation Xrotation Yrotation
        JOINT RightArm
        {
          OFFSET -10.2827 -0.00338 0.322123
          CHANNELS 3 Zrotation Xrotation Yrotation
          JOINT RightForeArm
          {
            OFFSET -32.8971 0.099144 -1.42434
            CHANNELS 3 Zrotation Xrotation Yrotation
            JOINT RightHand
            {
              OFFSET -27.4921 0.085362 1.02216
              CHANNELS 3 Zrotation Xrotation Yrotation
              End Site
              {
                OFFSET -16.6312 -0.6 1.50291
              }
            }
          }
        }
      }
    }
  }
  JOINT LeftUpLeg
  {
    OFFSET 8.9458 -8.66707 0.101652
    CHANNELS 3 Zrotation Xrotation Yrotation
    JOINT LeftLeg
    {
      OFFSET 0 -44.4227 1.3727
      CHANNELS 3 Zrotation Xrotation Yrotation
      JOINT LeftFoot
      {
        OFFSET -0.253549 -42.0924 -1.46059
        CHANNELS 3 Zrotation Xrotation Yrotation
        JOINT LeftToes
        {
          OFFSET -0.04 -4.41509 8.4991
          CHANNELS 3 Zrotation Xrotation Yrotation
          End Site
          {
            OFFSET 0.08 -0.047448 9.77979
          }
        }
      }
    }
  }
}
MOTION
Frames:	12
Frame Time:	0.0166667
58.6531 101.466 27.7425 6.67661 -11.0072 23.1369 -8.04215 -24.5513 30.2068 22.6719 23.4215 -72.7996 -7.50044 -9.56776 -0.872741 0.0462048 0.000533403 0.662642 -1.00121 23.0675 32.5422 0.0136534 7.20395e-008 -0.0996006 -0.785513 10.9164 -11.7077 -1.32417e-031 2.38542e-015 3.18055e-015 -141.388 -27.0098 -64.6681 -136.383 59.1797 -1.04178 -53.8302 30.3566 41.0124 -2.13584 5.32717 43.2088 -145.782 -8.85905 -146.8 136.95 26.6422 -19.7313 -34.1349 29.6377 24.3678 22.4192 -7.46541 -12.1641 -61.9106 48.8848 43.0707 28.5769 7.38189 2.71682 -1.34405e-009 1.55998e-007 -4.83405e-009 
58.6465 101.284 27.8149 6.73579 -11.1147 22.6666 -8.1657 -24.2955 29.5124 23.1001 24.5897 -72.3597 -6.64976 -10.606 -0.498562 0.0462048 0.000533403 0.662642 -1.18476 22.8951 32.4879 -0.0188044 -0.116762 -0.0923848 -0.785513 10.9164 -11.7077 1.59028e-015 0 3.18055e-015 -141.388 -27.0098 -64.6681 -136.383 59.1797 -1.04178 -53.8302 30.3566 41.0124 -2.13584 5.32717 43.2088 -145.782 -8.85905 -146.8 136.95 26.6422 -19.7313 -34.1349 29.6377 24.3678 22.2801 -7.27098 -12.2102 -62.2297 49.045 43.6281 28.2777 7.04249 2.91125 -1.34405e-009 1.55998e-007 -4.83404e-009 
58.6285 100.786 28.0134 6.89827 -11.4093 21.3781 -8.55954 -23.3823 27.5669 23.8703 27.5259 -70.9651 -4.37696 -13.246 0.61736 0.0462048 0.000533403 0.662642 -1.68566 22.4213 32.3343 -0.107789 -0.436914 -0.0732762 -0.785513 10.9164 -11.7077 -7.95139e-016 -1.59028e-015 -0 -141.388 -27.0098 -64.6681 -136.383 59.1797 -1.04178 -53.8302 30.3566 41.0124 -2.13584 5.32717 43.2088 -145.782 -8.85905 -146.8 136.95 26.6422 -19.7313 -34.1349 29.6377 24.3678 21.8788 -6.73218 -12.3246 -63.0964 49.4748 45.1464 27.4535 6.11527 3.42983 -1.34405e-009 1.55998e-007 -4.83405e-009 
58.6017 100.042 28.3103 7.14168 -11.8493 19.4547 -9.34303 -21.5355 24.5679 24.091 31.2199 -68.3393 -1.13027 -16.6995 2.47082 0.0462048 0.000533403 0.662642 -2.42777 21.7106 32.0923 -0.240812 -0.915252 -0.0465737 -0.785513 10.9164 -11.7077 7.95139e-016 7.95139e-016 -3.18055e-015 -141.388 -27.0098 -64.6681 -136.383 59.1797 -1.04178 -53.8302 30.3566 41.0124 -2.13584 5.32717 43.2088 -145.782 -8.85905 -146.8 136.95 26.6422 -19.7313 -34.1349 29.6377 24.3678 21.2258 -5.91314 -12.4605 -64.369 50.0913 47.3878 26.2125 4.7399 4.16206 -1.34405e-009 1.55998e-007 -4.83405e-009 
58.7739 98.4759 28.314 5.30877 -14.5464 9.54459 -6.72244 -19.0893 24.7463 23.6085 34.9744 -64.4286 0.354655 -20.3486 4.50606 0.0462048 0.000533403 0.662642 -3.80923 22.8619 34.9315 -0.404778 -1.50669 0.00121024 -2.15814 8.52023 -11.1778 0 0 -0 -140.358 -17.3789 -68.4797 -127.598 74.1232 1.47354 -54.4909 25.7388 58.9559 -7.88661 -1.80166 49.1457 -134.896 -0.45428 -138.121 137.274 29.2456 -17.3421 -31.2228 25.6014 32.3244 21.2618 -2.31187 -10.0716 -67.1453 50.0247 52.0231 23.9356 3.46087 4.89849 -1.34405e-009 1.55998e-007 -4.83404e-009 
59.0127 96.7327 28.3181 3.39213 -16.9342 0.21524 -6.74385 -16.1908 22.3743 22.5999 38.5558 -58.3164 2.03025 -23.7082 7.1051 0.0462048 0.000533403 0.662642 -5.39125 23.6057 35.605 -0.58732 -2.16597 0.0451946 -3.45517 5.64453 -10.5813 -0 0 6.36111e-015 -137.216 -8.69238 -72.8845 -55.7696 86.8665 -54.9839 -48.7106 24.8394 65.3634 -13.6401 -9.14101 52.8892 -124.484 7.11015 -132.218 135.304 30.7584 -13.9795 -19.6179 15.6965 24.7584 20.8318 1.10007 -8.15482 -69.5273 49.4856 57.1023 21.2105 1.9804 5.55477 -1.34405e-009 1.55998e-007 -4.83405e-009 
59.3323 94.8958 28.3158 1.466 -19.0182 -8.36487 -9.01592 -13.4369 18.2345 20.7722 41.6339 -50.1978 3.572 -26.2403 10.0469 0.0462048 0.000533403 0.662642 -7.05342 24.1181 34.3285 -0.775969 -2.84781 0.082334 -4.52842 2.96752 -8.51864 3.97569e-016 0 6.36111e-015 -131.985 -1.49505 -77.9349 36.6712 77.5134 -128.187 -37.8271 3.58168 50.97 -19.8551 -16.1122 54.7902 -114.658 11.179 -131.824 135.012 30.9109 -12.2154 -32.6649 27.6035 28.5806 19.9662 4.24322 -6.52337 -71.5851 48.69 62.3256 18.9075 0.641835 6.06287 -1.34405e-009 1.55998e-007 -4.83405e-009 
59.7518 93.06 28.3018 -0.399414 -20.8005 -16.0606 -12.7584 -11.2183 13.0639 17.7886 43.9783 -40.3453 4.76204 -27.4871 12.9485 0.0462048 0.000533403 0.662642 -8.71017 24.5802 31.3413 -0.957865 -3.50702 0.112521 -5.32326 0.503848 -5.12598 1.98785e-016 3.97569e-016 1.59028e-015 -124.896 3.74292 -83.5052 40.6151 69.2722 -110.478 -35.9654 19.3888 39.7235 -26.9538 -22.2695 54.8775 -104.999 12.2449 -135.696 135.448 30.555 -11.4789 -24.3504 20.5949 24.2598 18.8819 7.042 -5.14075 -73.4229 47.7249 67.4172 16.7099 -0.484204 6.38277 -1.34405e-009 1.55998e-007 -4.83406e-009 
60.2784 91.3076 28.2764 -2.13727 -22.2764 -22.753 -16.9983 -9.80106 7.37687 13.4941 45.5329 -29.241 5.53579 -27.3144 15.3967 0.0462048 0.000533403 0.662642 -10.2271 25.1876 26.856 -1.11397 -4.09836 0.134913 -5.89778 -1.73149 -0.527194 -2.76435e-016 9.93923e-017 -3.97569e-016 -116.406 7.21077 -89.1988 32.6996 62.0731 -82.148 -36.3041 -5.53911 33.13 -29.4912 -18.8421 47.2497 -105.57 2.84059 -145.68 135.981 30.1144 -11.3084 -27.0217 22.6756 26.3721 17.6849 9.43353 -3.94417 -75.0237 46.6454 72.0909 14.9708 -1.3125 6.53581 -1.34404e-009 1.55998e-007 -4.83405e-009 
60.9112 89.7296 28.2439 -3.68796 -23.4369 -28.3212 -20.8761 -9.31362 1.46112 8.17637 46.4102 -17.6096 5.85186 -26.0072 17.0757 0.0462048 0.000533403 0.662642 -11.4287 26.0842 21.0718 -1.24265 -4.57252 0.152167 -6.29356 -3.73322 5.1274 -2.23633e-016 -4.96962e-017 1.59028e-015 -106.707 8.32158 -94.6555 24.7067 50.1058 -56.677 -31.9748 12.3484 30.965 -31.2899 -14.2928 39.0379 -109.367 -8.49701 -157.882 136.421 29.8121 -11.6135 -23.2248 19.4775 24.1182 16.5383 11.3753 -2.95481 -76.3552 45.5014 76.0907 13.6837 -1.85518 6.54891 -1.34405e-009 1.55998e-007 -4.83405e-009 
61.613 88.4393 28.2205 -5.00721 -24.2729 -32.6246 -23.5081 -9.44637 -3.39708 3.13898 46.7453 -7.78722 5.76766 -24.3273 17.9 0.0462048 0.000533403 0.662642 -12.036 27.377 14.1202 -1.32687 -4.88298 0.162108 -6.59568 -5.54735 11.6807 9.93923e-017 -9.93923e-017 3.18055e-015 -96.0895 6.16637 -98.6339 24.923 37.0813 -42.7206 -35.7055 13.5408 27.5116 -31.7369 -8.63757 30.4331 -118.148 -20.1069 -173.405 136.613 29.7011 -12.2615 -24.9957 21.2946 25.2113 15.592 12.8569 -2.232 -77.2907 44.348 79.1581 12.9674 -2.08674 6.47003 -1.34405e-009 1.55998e-007 -4.83405e-009 
62.3669 87.5471 28.2038 -6.06653 -24.7678 -35.505 -24.7797 -10.2536 -7.26899 -0.581681 47.4396 -0.513598 4.77195 -22.9394 17.7375 0.0462048 0.000533403 0.662642 -11.6052 29.0838 6.1497 -1.34671 -4.98423 0.174845 -6.96793 -7.25267 18.8303 1.98785e-016 -3.97569e-016 3.18055e-015 -90.0528 0.0449774 -99.6946 26.3565 27.9667 -36.0058 -17.8504 25.9031 6.08255 -30.5857 -2.51602 21.4515 -133.216 -29.3571 166.414 136.525 29.7566 -13.2697 -23.1359 19.5281 24.0477 15.0271 13.8695 -1.87171 -77.747 43.2352 81.1425 12.8309 -1.99338 6.33108 -1.34405e-009 1.55998e-007 -4.83405e-009 
